<?xml version="1.0" encoding="UTF-8" standalone="no"?>
<!DOCTYPE svg PUBLIC "-//W3C//DTD SVG 1.1//EN"
 "http://www.w3.org/Graphics/SVG/1.1/DTD/svg11.dtd">
<!-- Generated by graphviz version 2.40.1 (20161225.0304)
 -->
<!-- Title: snakemake_dag Pages: 1 -->
<svg width="442pt" height="404pt"
 viewBox="0.00 0.00 442.00 404.00" xmlns="http://www.w3.org/2000/svg" xmlns:xlink="http://www.w3.org/1999/xlink">
<g id="graph0" class="graph" transform="scale(1 1) rotate(0) translate(4 400)">
<title>snakemake_dag</title>
<polygon fill="#ffffff" stroke="transparent" points="-4,4 -4,-400 438,-400 438,4 -4,4"/>
<!-- 0 -->
<g id="node1" class="node">
<title>0</title>
<path fill="none" stroke="#d88d56" stroke-width="2" d="M241,-36C241,-36 211,-36 211,-36 205,-36 199,-30 199,-24 199,-24 199,-12 199,-12 199,-6 205,0 211,0 211,0 241,0 241,0 247,0 253,-6 253,-12 253,-12 253,-24 253,-24 253,-30 247,-36 241,-36"/>
<text text-anchor="middle" x="226" y="-15.5" font-family="sans" font-size="10.00" fill="#000000">all</text>
</g>
<!-- 1 -->
<g id="node2" class="node">
<title>1</title>
<path fill="none" stroke="#afd856" stroke-width="2" d="M216,-108C216,-108 176,-108 176,-108 170,-108 164,-102 164,-96 164,-96 164,-84 164,-84 164,-78 170,-72 176,-72 176,-72 216,-72 216,-72 222,-72 228,-78 228,-84 228,-84 228,-96 228,-96 228,-102 222,-108 216,-108"/>
<text text-anchor="middle" x="196" y="-87.5" font-family="sans" font-size="10.00" fill="#000000">insert_size</text>
</g>
<!-- 1&#45;&gt;0 -->
<g id="edge1" class="edge">
<title>1&#45;&gt;0</title>
<path fill="none" stroke="#c0c0c0" stroke-width="2" d="M203.5703,-71.8314C206.8493,-63.9617 210.762,-54.5712 214.3945,-45.8533"/>
<polygon fill="#c0c0c0" stroke="#c0c0c0" stroke-width="2" points="217.7124,-46.9902 218.3278,-36.4133 211.2508,-44.2979 217.7124,-46.9902"/>
</g>
<!-- 2 -->
<g id="node3" class="node">
<title>2</title>
<path fill="none" stroke="#d85656" stroke-width="2" stroke-dasharray="5,2" d="M264,-180C264,-180 228,-180 228,-180 222,-180 216,-174 216,-168 216,-168 216,-156 216,-156 216,-150 222,-144 228,-144 228,-144 264,-144 264,-144 270,-144 276,-150 276,-156 276,-156 276,-168 276,-168 276,-174 270,-180 264,-180"/>
<text text-anchor="middle" x="246" y="-159.5" font-family="sans" font-size="10.00" fill="#000000">fastqc_pe</text>
</g>
<!-- 2&#45;&gt;0 -->
<g id="edge2" class="edge">
<title>2&#45;&gt;0</title>
<path fill="none" stroke="#c0c0c0" stroke-width="2" d="M244.7131,-143.6606C243.3051,-125.4256 240.7388,-96.6861 237,-72 235.7307,-63.6193 234.0225,-54.572 232.3313,-46.3231"/>
<polygon fill="#c0c0c0" stroke="#c0c0c0" stroke-width="2" points="235.7283,-45.4697 230.2324,-36.4119 228.8801,-46.92 235.7283,-45.4697"/>
</g>
<!-- 3 -->
<g id="node4" class="node">
<title>3</title>
<path fill="none" stroke="#d85656" stroke-width="2" stroke-dasharray="5,2" d="M48,-252C48,-252 12,-252 12,-252 6,-252 0,-246 0,-240 0,-240 0,-228 0,-228 0,-222 6,-216 12,-216 12,-216 48,-216 48,-216 54,-216 60,-222 60,-228 60,-228 60,-240 60,-240 60,-246 54,-252 48,-252"/>
<text text-anchor="middle" x="30" y="-231.5" font-family="sans" font-size="10.00" fill="#000000">fastqc_pe</text>
</g>
<!-- 3&#45;&gt;0 -->
<g id="edge3" class="edge">
<title>3&#45;&gt;0</title>
<path fill="none" stroke="#c0c0c0" stroke-width="2" d="M33.8261,-215.7429C41.5841,-182.8943 62.1044,-113.4047 104,-72 127.4465,-48.8282 162.5289,-34.7311 189.0634,-26.7802"/>
<polygon fill="#c0c0c0" stroke="#c0c0c0" stroke-width="2" points="190.1062,-30.1226 198.7724,-24.0279 188.1969,-23.388 190.1062,-30.1226"/>
</g>
<!-- 4 -->
<g id="node5" class="node">
<title>4</title>
<path fill="none" stroke="#afd856" stroke-width="2" d="M422,-108C422,-108 382,-108 382,-108 376,-108 370,-102 370,-96 370,-96 370,-84 370,-84 370,-78 376,-72 382,-72 382,-72 422,-72 422,-72 428,-72 434,-78 434,-84 434,-84 434,-96 434,-96 434,-102 428,-108 422,-108"/>
<text text-anchor="middle" x="402" y="-87.5" font-family="sans" font-size="10.00" fill="#000000">insert_size</text>
</g>
<!-- 4&#45;&gt;0 -->
<g id="edge4" class="edge">
<title>4&#45;&gt;0</title>
<path fill="none" stroke="#c0c0c0" stroke-width="2" d="M369.7189,-76.7941C339.4111,-64.3954 294.1239,-45.8689 262.5114,-32.9365"/>
<polygon fill="#c0c0c0" stroke="#c0c0c0" stroke-width="2" points="263.7521,-29.6626 253.1714,-29.1156 261.1017,-36.1414 263.7521,-29.6626"/>
</g>
<!-- 5 -->
<g id="node6" class="node">
<title>5</title>
<path fill="none" stroke="#56c9d8" stroke-width="2" stroke-dasharray="5,2" d="M174,-252C174,-252 90,-252 90,-252 84,-252 78,-246 78,-240 78,-240 78,-228 78,-228 78,-222 84,-216 90,-216 90,-216 174,-216 174,-216 180,-216 186,-222 186,-228 186,-228 186,-240 186,-240 186,-246 180,-252 174,-252"/>
<text text-anchor="middle" x="132" y="-231.5" font-family="sans" font-size="10.00" fill="#000000">samtools_sort_index</text>
</g>
<!-- 5&#45;&gt;0 -->
<g id="edge5" class="edge">
<title>5&#45;&gt;0</title>
<path fill="none" stroke="#c0c0c0" stroke-width="2" d="M111.1422,-215.6461C101.846,-206.0709 91.9022,-193.54 87,-180 81.5532,-164.9557 81.9404,-159.1789 87,-144 103.5934,-94.2198 154.3504,-57.194 189.7005,-36.5842"/>
<polygon fill="#c0c0c0" stroke="#c0c0c0" stroke-width="2" points="191.7904,-39.4233 198.7728,-31.4549 188.3452,-33.3298 191.7904,-39.4233"/>
</g>
<!-- 6 -->
<g id="node7" class="node">
<title>6</title>
<path fill="none" stroke="#d8cb56" stroke-width="2" stroke-dasharray="5,2" d="M185.5,-180C185.5,-180 108.5,-180 108.5,-180 102.5,-180 96.5,-174 96.5,-168 96.5,-168 96.5,-156 96.5,-156 96.5,-150 102.5,-144 108.5,-144 108.5,-144 185.5,-144 185.5,-144 191.5,-144 197.5,-150 197.5,-156 197.5,-156 197.5,-168 197.5,-168 197.5,-174 191.5,-180 185.5,-180"/>
<text text-anchor="middle" x="147" y="-159.5" font-family="sans" font-size="10.00" fill="#000000">samtools_markdup</text>
</g>
<!-- 5&#45;&gt;6 -->
<g id="edge14" class="edge">
<title>5&#45;&gt;6</title>
<path fill="none" stroke="#c0c0c0" stroke-width="2" d="M135.7851,-215.8314C137.3894,-208.131 139.297,-198.9743 141.0799,-190.4166"/>
<polygon fill="#c0c0c0" stroke="#c0c0c0" stroke-width="2" points="144.5507,-190.9169 143.1639,-180.4133 137.6979,-189.4892 144.5507,-190.9169"/>
</g>
<!-- 6&#45;&gt;0 -->
<g id="edge6" class="edge">
<title>6&#45;&gt;0</title>
<path fill="none" stroke="#c0c0c0" stroke-width="2" d="M144.506,-143.8586C142.775,-124.7491 142.6381,-94.3823 155,-72 163.0458,-57.4323 176.8475,-45.5796 190.1551,-36.7295"/>
<polygon fill="#c0c0c0" stroke="#c0c0c0" stroke-width="2" points="192.1386,-39.6172 198.7632,-31.3489 188.4283,-33.6814 192.1386,-39.6172"/>
</g>
<!-- 6&#45;&gt;1 -->
<g id="edge9" class="edge">
<title>6&#45;&gt;1</title>
<path fill="none" stroke="#c0c0c0" stroke-width="2" d="M159.3648,-143.8314C164.9509,-135.6232 171.663,-125.7606 177.8072,-116.7323"/>
<polygon fill="#c0c0c0" stroke="#c0c0c0" stroke-width="2" points="180.736,-118.6496 183.4687,-108.4133 174.949,-114.7112 180.736,-118.6496"/>
</g>
<!-- 7 -->
<g id="node8" class="node">
<title>7</title>
<path fill="none" stroke="#d8cb56" stroke-width="2" stroke-dasharray="5,2" d="M421.5,-180C421.5,-180 344.5,-180 344.5,-180 338.5,-180 332.5,-174 332.5,-168 332.5,-168 332.5,-156 332.5,-156 332.5,-150 338.5,-144 344.5,-144 344.5,-144 421.5,-144 421.5,-144 427.5,-144 433.5,-150 433.5,-156 433.5,-156 433.5,-168 433.5,-168 433.5,-174 427.5,-180 421.5,-180"/>
<text text-anchor="middle" x="383" y="-159.5" font-family="sans" font-size="10.00" fill="#000000">samtools_markdup</text>
</g>
<!-- 7&#45;&gt;0 -->
<g id="edge7" class="edge">
<title>7&#45;&gt;0</title>
<path fill="none" stroke="#c0c0c0" stroke-width="2" d="M372.9096,-143.7241C361.4834,-124.2224 341.3842,-93.268 318,-72 301.549,-57.0378 280.2914,-44.2317 262.3548,-34.8507"/>
<polygon fill="#c0c0c0" stroke="#c0c0c0" stroke-width="2" points="263.8221,-31.6704 253.321,-30.2639 260.653,-37.9119 263.8221,-31.6704"/>
</g>
<!-- 7&#45;&gt;4 -->
<g id="edge12" class="edge">
<title>7&#45;&gt;4</title>
<path fill="none" stroke="#c0c0c0" stroke-width="2" d="M387.7945,-143.8314C389.8489,-136.0463 392.296,-126.7729 394.5756,-118.1347"/>
<polygon fill="#c0c0c0" stroke="#c0c0c0" stroke-width="2" points="397.9735,-118.9753 397.1409,-108.4133 391.2052,-117.1892 397.9735,-118.9753"/>
</g>
<!-- 8 -->
<g id="node9" class="node">
<title>8</title>
<path fill="none" stroke="#56c9d8" stroke-width="2" stroke-dasharray="5,2" d="M370,-252C370,-252 286,-252 286,-252 280,-252 274,-246 274,-240 274,-240 274,-228 274,-228 274,-222 280,-216 286,-216 286,-216 370,-216 370,-216 376,-216 382,-222 382,-228 382,-228 382,-240 382,-240 382,-246 376,-252 370,-252"/>
<text text-anchor="middle" x="328" y="-231.5" font-family="sans" font-size="10.00" fill="#000000">samtools_sort_index</text>
</g>
<!-- 8&#45;&gt;0 -->
<g id="edge8" class="edge">
<title>8&#45;&gt;0</title>
<path fill="none" stroke="#c0c0c0" stroke-width="2" d="M320.0781,-215.8833C306.8413,-185.7924 279.1926,-123.7005 254,-72 249.7652,-63.3092 244.9784,-53.9286 240.5761,-45.4628"/>
<polygon fill="#c0c0c0" stroke="#c0c0c0" stroke-width="2" points="243.5589,-43.614 235.819,-36.3791 237.3577,-46.8616 243.5589,-43.614"/>
</g>
<!-- 8&#45;&gt;7 -->
<g id="edge15" class="edge">
<title>8&#45;&gt;7</title>
<path fill="none" stroke="#c0c0c0" stroke-width="2" d="M341.8788,-215.8314C348.2136,-207.5386 355.8384,-197.557 362.7926,-188.4533"/>
<polygon fill="#c0c0c0" stroke="#c0c0c0" stroke-width="2" points="365.6452,-190.4847 368.9343,-180.4133 360.0825,-186.2353 365.6452,-190.4847"/>
</g>
<!-- 9 -->
<g id="node10" class="node">
<title>9</title>
<path fill="none" stroke="#56d8a9" stroke-width="2" stroke-dasharray="5,2" d="M310.5,-396C310.5,-396 251.5,-396 251.5,-396 245.5,-396 239.5,-390 239.5,-384 239.5,-384 239.5,-372 239.5,-372 239.5,-366 245.5,-360 251.5,-360 251.5,-360 310.5,-360 310.5,-360 316.5,-360 322.5,-366 322.5,-372 322.5,-372 322.5,-384 322.5,-384 322.5,-390 316.5,-396 310.5,-396"/>
<text text-anchor="middle" x="281" y="-381" font-family="sans" font-size="10.00" fill="#000000">trim_galore_pe</text>
<text text-anchor="middle" x="281" y="-370" font-family="sans" font-size="10.00" fill="#000000">sample: D</text>
</g>
<!-- 9&#45;&gt;2 -->
<g id="edge10" class="edge">
<title>9&#45;&gt;2</title>
<path fill="none" stroke="#c0c0c0" stroke-width="2" d="M278.0761,-359.9555C271.9769,-322.3144 257.859,-235.1867 250.5572,-190.1246"/>
<polygon fill="#c0c0c0" stroke="#c0c0c0" stroke-width="2" points="253.9947,-189.4565 248.9402,-180.1451 247.0848,-190.5762 253.9947,-189.4565"/>
</g>
<!-- 12 -->
<g id="node13" class="node">
<title>12</title>
<path fill="none" stroke="#56d873" stroke-width="2" stroke-dasharray="5,2" d="M334,-324C334,-324 298,-324 298,-324 292,-324 286,-318 286,-312 286,-312 286,-300 286,-300 286,-294 292,-288 298,-288 298,-288 334,-288 334,-288 340,-288 346,-294 346,-300 346,-300 346,-312 346,-312 346,-318 340,-324 334,-324"/>
<text text-anchor="middle" x="316" y="-303.5" font-family="sans" font-size="10.00" fill="#000000">bwa_map</text>
</g>
<!-- 9&#45;&gt;12 -->
<g id="edge18" class="edge">
<title>9&#45;&gt;12</title>
<path fill="none" stroke="#c0c0c0" stroke-width="2" d="M289.832,-359.8314C293.6986,-351.8771 298.3206,-342.369 302.5968,-333.5723"/>
<polygon fill="#c0c0c0" stroke="#c0c0c0" stroke-width="2" points="305.8249,-334.9371 307.0491,-324.4133 299.5293,-331.8768 305.8249,-334.9371"/>
</g>
<!-- 10 -->
<g id="node11" class="node">
<title>10</title>
<path fill="none" stroke="#56d8a9" stroke-width="2" stroke-dasharray="5,2" d="M105.5,-396C105.5,-396 46.5,-396 46.5,-396 40.5,-396 34.5,-390 34.5,-384 34.5,-384 34.5,-372 34.5,-372 34.5,-366 40.5,-360 46.5,-360 46.5,-360 105.5,-360 105.5,-360 111.5,-360 117.5,-366 117.5,-372 117.5,-372 117.5,-384 117.5,-384 117.5,-390 111.5,-396 105.5,-396"/>
<text text-anchor="middle" x="76" y="-381" font-family="sans" font-size="10.00" fill="#000000">trim_galore_pe</text>
<text text-anchor="middle" x="76" y="-370" font-family="sans" font-size="10.00" fill="#000000">sample: C</text>
</g>
<!-- 10&#45;&gt;3 -->
<g id="edge11" class="edge">
<title>10&#45;&gt;3</title>
<path fill="none" stroke="#c0c0c0" stroke-width="2" d="M70.1741,-359.7623C62.2935,-335.0928 48.1635,-290.8598 38.9358,-261.9731"/>
<polygon fill="#c0c0c0" stroke="#c0c0c0" stroke-width="2" points="42.1557,-260.5503 35.7786,-252.0896 35.4876,-262.6805 42.1557,-260.5503"/>
</g>
<!-- 11 -->
<g id="node12" class="node">
<title>11</title>
<path fill="none" stroke="#56d873" stroke-width="2" stroke-dasharray="5,2" d="M128,-324C128,-324 92,-324 92,-324 86,-324 80,-318 80,-312 80,-312 80,-300 80,-300 80,-294 86,-288 92,-288 92,-288 128,-288 128,-288 134,-288 140,-294 140,-300 140,-300 140,-312 140,-312 140,-318 134,-324 128,-324"/>
<text text-anchor="middle" x="110" y="-303.5" font-family="sans" font-size="10.00" fill="#000000">bwa_map</text>
</g>
<!-- 10&#45;&gt;11 -->
<g id="edge17" class="edge">
<title>10&#45;&gt;11</title>
<path fill="none" stroke="#c0c0c0" stroke-width="2" d="M84.5796,-359.8314C88.3358,-351.8771 92.8257,-342.369 96.9798,-333.5723"/>
<polygon fill="#c0c0c0" stroke="#c0c0c0" stroke-width="2" points="100.1996,-334.9503 101.3048,-324.4133 93.8699,-331.9612 100.1996,-334.9503"/>
</g>
<!-- 11&#45;&gt;5 -->
<g id="edge13" class="edge">
<title>11&#45;&gt;5</title>
<path fill="none" stroke="#c0c0c0" stroke-width="2" d="M115.5515,-287.8314C117.9303,-280.0463 120.7638,-270.7729 123.4033,-262.1347"/>
<polygon fill="#c0c0c0" stroke="#c0c0c0" stroke-width="2" points="126.7987,-262.9996 126.3737,-252.4133 120.1042,-260.954 126.7987,-262.9996"/>
</g>
<!-- 12&#45;&gt;8 -->
<g id="edge16" class="edge">
<title>12&#45;&gt;8</title>
<path fill="none" stroke="#c0c0c0" stroke-width="2" d="M319.0281,-287.8314C320.3115,-280.131 321.8376,-270.9743 323.2639,-262.4166"/>
<polygon fill="#c0c0c0" stroke="#c0c0c0" stroke-width="2" points="326.7394,-262.8526 324.9311,-252.4133 319.8347,-261.7018 326.7394,-262.8526"/>
</g>
</g>
</svg>
