<?xml version="1.0" encoding="UTF-8" standalone="no"?>
<!-- Created with Inkscape (http://www.inkscape.org/) -->

<svg
   version="1.1"
   id="svg9"
   xml:space="preserve"
   width="833.33331"
   height="634.66669"
   viewBox="0 0 833.33331 634.66669"
   sodipodi:docname="dag.svg"
   inkscape:version="1.1.1 (c3084ef, 2021-09-22)"
   inkscape:export-filename="/Users/yong/yzeng_h4h/snakemake/tcge-cfmedip-seq-pipeline/figures/cfmedip-seq-pipeline.png"
   inkscape:export-xdpi="96"
   inkscape:export-ydpi="96"
   xmlns:inkscape="http://www.inkscape.org/namespaces/inkscape"
   xmlns:sodipodi="http://sodipodi.sourceforge.net/DTD/sodipodi-0.dtd"
   xmlns="http://www.w3.org/2000/svg"
   xmlns:svg="http://www.w3.org/2000/svg"><defs
     id="defs13" /><sodipodi:namedview
     id="namedview11"
     pagecolor="#ffffff"
     bordercolor="#666666"
     borderopacity="1.0"
     inkscape:pageshadow="2"
     inkscape:pageopacity="0.0"
     inkscape:pagecheckerboard="0"
     showgrid="false"
     inkscape:snap-center="false"
     inkscape:snap-object-midpoints="true"
     inkscape:snap-others="false"
     inkscape:zoom="1.3182814"
     inkscape:cx="418.727"
     inkscape:cy="317.45879"
     inkscape:window-width="1312"
     inkscape:window-height="1081"
     inkscape:window-x="165"
     inkscape:window-y="620"
     inkscape:window-maximized="0"
     inkscape:current-layer="g15" /><g
     id="g15"
     inkscape:groupmode="layer"
     inkscape:label="dag"
     transform="matrix(1.3333333,0,0,1.3333333,0,1.92e-5)"><path
       d="m 323,436 c 0,0 -30,0 -30,0 -6,0 -12,6 -12,12 0,0 0,12 0,12 0,6 6,12 12,12 0,0 30,0 30,0 6,0 12,-6 12,-12 0,0 0,-12 0,-12 0,-6 -6,-12 -12,-12"
       style="fill:none;stroke:#57b2d9;stroke-width:2;stroke-linecap:butt;stroke-linejoin:miter;stroke-miterlimit:10;stroke-dasharray:none;stroke-opacity:1"
       id="path21" /><text
       style="font-variant:normal;font-weight:normal;font-size:9.99976px;font-family:'DejaVu Sans';-inkscape-font-specification:DejaVuSans;writing-mode:lr-tb;fill:#000000;fill-opacity:1;fill-rule:nonzero;stroke:none"
       id="text25"
       x="301.5"
       y="456.5"><tspan
         x="301.5 307.48987 310.47977"
         y="456.5"
         sodipodi:role="line"
         id="tspan23">all</tspan></text><path
       d="m 56,220 c 0,0 -40,0 -40,0 -6,0 -12,6 -12,12 0,0 0,12 0,12 0,6 6,12 12,12 0,0 40,0 40,0 6,0 12,-6 12,-12 0,0 0,-12 0,-12 0,-6 -6,-12 -12,-12"
       style="fill:none;stroke:#5783d9;stroke-width:2;stroke-linecap:butt;stroke-linejoin:miter;stroke-miterlimit:10;stroke-dasharray:none;stroke-opacity:1"
       id="path27" /><text
       style="font-variant:normal;font-weight:normal;font-size:9.99976px;font-family:'DejaVu Sans';-inkscape-font-specification:DejaVuSans;writing-mode:lr-tb;fill:#000000;fill-opacity:1;fill-rule:nonzero;stroke:none"
       id="text31"
       x="12"
       y="240.5"><tspan
         x="12 15.749908 21.739761 26.979633 30.729544 36.719398 41.969269 47.219139 53.208996"
         y="240.5"
         sodipodi:role="line"
         id="tspan29">fastqc_pe</tspan></text><path
       d="M 37.848,256.098 C 42.258,289.641 56.512,361.527 100,400 c 25.215,22.305 118.246,40 170.949,48.496"
       style="fill:none;stroke:#c0c0c0;stroke-width:2;stroke-linecap:butt;stroke-linejoin:miter;stroke-miterlimit:10;stroke-dasharray:none;stroke-opacity:1"
       id="path33" /><path
       d="m 271.59,445.055 9.332,5.019 -10.426,1.895 z"
       style="fill:#c0c0c0;fill-opacity:1;fill-rule:nonzero;stroke:#c0c0c0;stroke-width:2;stroke-linecap:butt;stroke-linejoin:miter;stroke-miterlimit:10;stroke-dasharray:none;stroke-opacity:1"
       id="path35" /><path
       d="m 123,76 c 0,0 -66,0 -66,0 -6,0 -12,6 -12,12 0,0 0,12 0,12 0,6 6,12 12,12 0,0 66,0 66,0 6,0 12,-6 12,-12 0,0 0,-12 0,-12 0,-6 -6,-12 -12,-12"
       style="fill:none;stroke:#71d957;stroke-width:2;stroke-linecap:butt;stroke-linejoin:miter;stroke-miterlimit:10;stroke-dasharray:none;stroke-opacity:1"
       id="path37" /><text
       style="font-variant:normal;font-weight:normal;font-size:9.99976px;font-family:'DejaVu Sans';-inkscape-font-specification:DejaVuSans;writing-mode:lr-tb;fill:#000000;fill-opacity:1;fill-rule:nonzero;stroke:none"
       id="text41"
       x="53"
       y="96.5"><tspan
         x="53 56.749908 60.499817 63.489746 73.229507 78.48938 84.479233 90.469086 93.469009 99.458862 103.20877 109.19862"
         y="96.5"
         sodipodi:role="line"
         id="tspan39">trim_galore_se</tspan></text><path
       d="m 83.16,112.238 c -9.289,24.778 -25.984,69.289 -36.812,98.168"
       style="fill:none;stroke:#c0c0c0;stroke-width:2;stroke-linecap:butt;stroke-linejoin:miter;stroke-miterlimit:10;stroke-dasharray:none;stroke-opacity:1"
       id="path43" /><path
       d="m 49.57,211.777 -6.785,8.133 0.235,-10.594 z"
       style="fill:#c0c0c0;fill-opacity:1;fill-rule:nonzero;stroke:#c0c0c0;stroke-width:2;stroke-linecap:butt;stroke-linejoin:miter;stroke-miterlimit:10;stroke-dasharray:none;stroke-opacity:1"
       id="path45" /><path
       d="m 154.35168,148 c 0,0 -52.96283,0 -52.96283,0 C 93.44442,148 85.5,154 85.5,160 c 0,0 0,12 0,12 0,6 7.94442,12 15.88885,12 0,0 52.96283,0 52.96283,0 7.94443,0 15.88885,-6 15.88885,-12 0,0 0,-12 0,-12 0,-6 -7.94442,-12 -15.88885,-12"
       style="fill:none;stroke:#57d9c9;stroke-width:2.30137;stroke-linecap:butt;stroke-linejoin:miter;stroke-miterlimit:10;stroke-dasharray:none;stroke-opacity:1"
       id="path47" /><path
       d="m 99.59,112.168 c 4.242,8.039 9.32,17.664 14.008,26.539"
       style="fill:none;stroke:#c0c0c0;stroke-width:2;stroke-linecap:butt;stroke-linejoin:miter;stroke-miterlimit:10;stroke-dasharray:none;stroke-opacity:1"
       id="path53" /><path
       d="m 116.711,137.109 1.57,10.477 -7.761,-7.211 z"
       style="fill:#c0c0c0;fill-opacity:1;fill-rule:nonzero;stroke:#c0c0c0;stroke-width:2;stroke-linecap:butt;stroke-linejoin:miter;stroke-miterlimit:10;stroke-dasharray:none;stroke-opacity:1"
       id="path55" /><path
       d="m 129.36288,4 c 0,0 -78.153788,0 -78.153788,0 C 44.604546,4 38,10 38,16 c 0,0 0,12 0,12 0,6 6.604546,12 13.209092,12 0,0 78.153788,0 78.153788,0 6.60455,0 13.2091,-6 13.2091,-12 0,0 0,-12 0,-12 0,-6 -6.60455,-12 -13.2091,-12"
       style="fill:none;stroke:#57d99a;stroke-width:2.09834;stroke-linecap:butt;stroke-linejoin:miter;stroke-miterlimit:10;stroke-dasharray:none;stroke-opacity:1"
       id="path57" /><path
       d="m 90,40.168 c 0,7.699 0,16.859 0,25.414"
       style="fill:none;stroke:#c0c0c0;stroke-width:2;stroke-linecap:butt;stroke-linejoin:miter;stroke-miterlimit:10;stroke-dasharray:none;stroke-opacity:1"
       id="path65" /><path
       d="m 93.5,65.586 -3.5,10 -3.5,-10 z"
       style="fill:#c0c0c0;fill-opacity:1;fill-rule:nonzero;stroke:#c0c0c0;stroke-width:2;stroke-linecap:butt;stroke-linejoin:miter;stroke-miterlimit:10;stroke-dasharray:none;stroke-opacity:1"
       id="path67" /><path
       d="m 361,292 c 0,0 -40,0 -40,0 -6,0 -12,6 -12,12 0,0 0,12 0,12 0,6 6,12 12,12 0,0 40,0 40,0 6,0 12,-6 12,-12 0,0 0,-12 0,-12 0,-6 -6,-12 -12,-12"
       style="fill:none;stroke:#5783d9;stroke-width:2;stroke-linecap:butt;stroke-linejoin:miter;stroke-miterlimit:10;stroke-dasharray:none;stroke-opacity:1"
       id="path69" /><text
       style="font-variant:normal;font-weight:normal;font-size:9.99976px;font-family:'DejaVu Sans';-inkscape-font-specification:DejaVuSans;writing-mode:lr-tb;fill:#000000;fill-opacity:1;fill-rule:nonzero;stroke:none"
       id="text73"
       x="317"
       y="312.5"><tspan
         x="317 320.74991 326.73978 331.97964 335.72955 341.71939 346.96927 352.21915 358.20898"
         y="312.5"
         sodipodi:role="line"
         id="tspan71">fastqc_pe</tspan></text><path
       d="m 340.867,328.23 c -0.527,18.399 -2.433,47.485 -8.867,71.77 -2.34,8.84 -5.961,18.066 -9.688,26.344"
       style="fill:none;stroke:#c0c0c0;stroke-width:2;stroke-linecap:butt;stroke-linejoin:miter;stroke-miterlimit:10;stroke-dasharray:none;stroke-opacity:1"
       id="path75" /><path
       d="m 325.402,428 -7.437,7.543 1.109,-10.535 z"
       style="fill:#c0c0c0;fill-opacity:1;fill-rule:nonzero;stroke:#c0c0c0;stroke-width:2;stroke-linecap:butt;stroke-linejoin:miter;stroke-miterlimit:10;stroke-dasharray:none;stroke-opacity:1"
       id="path77" /><path
       d="m 418,76 c 0,0 -66,0 -66,0 -6,0 -12,6 -12,12 0,0 0,12 0,12 0,6 6,12 12,12 0,0 66,0 66,0 6,0 12,-6 12,-12 0,0 0,-12 0,-12 0,-6 -6,-12 -12,-12"
       style="fill:none;stroke:#71d957;stroke-width:2;stroke-linecap:butt;stroke-linejoin:miter;stroke-miterlimit:10;stroke-dasharray:none;stroke-opacity:1"
       id="path79" /><text
       style="font-variant:normal;font-weight:normal;font-size:9.99976px;font-family:'DejaVu Sans';-inkscape-font-specification:DejaVuSans;writing-mode:lr-tb;fill:#000000;fill-opacity:1;fill-rule:nonzero;stroke:none"
       id="text83"
       x="348"
       y="96.5"><tspan
         x="348 351.74991 355.49982 358.48975 368.22949 373.48938 379.47925 385.46909 388.46902 394.45886 398.20877 404.19864 409.44849 415.44836"
         y="96.5"
         sodipodi:role="line"
         id="tspan81">trim_galore_pe</tspan></text><path
       d="M 381.324,112.043 C 373.656,149.688 355.91,236.812 346.73,281.875"
       style="fill:none;stroke:#c0c0c0;stroke-width:2;stroke-linecap:butt;stroke-linejoin:miter;stroke-miterlimit:10;stroke-dasharray:none;stroke-opacity:1"
       id="path85" /><path
       d="m 350.121,282.754 -5.426,9.101 -1.433,-10.496 z"
       style="fill:#c0c0c0;fill-opacity:1;fill-rule:nonzero;stroke:#c0c0c0;stroke-width:2;stroke-linecap:butt;stroke-linejoin:miter;stroke-miterlimit:10;stroke-dasharray:none;stroke-opacity:1"
       id="path87" /><path
       d="m 395.348,112.168 c 4.574,8.039 10.058,17.664 15.109,26.539"
       style="fill:none;stroke:#c0c0c0;stroke-width:2;stroke-linecap:butt;stroke-linejoin:miter;stroke-miterlimit:10;stroke-dasharray:none;stroke-opacity:1"
       id="path95" /><path
       d="m 413.609,137.164 1.907,10.422 -7.993,-6.957 z"
       style="fill:#c0c0c0;fill-opacity:1;fill-rule:nonzero;stroke:#c0c0c0;stroke-width:2;stroke-linecap:butt;stroke-linejoin:miter;stroke-miterlimit:10;stroke-dasharray:none;stroke-opacity:1"
       id="path97" /><path
       d="m 385,40.168 c 0,7.699 0,16.859 0,25.414"
       style="fill:none;stroke:#c0c0c0;stroke-width:2;stroke-linecap:butt;stroke-linejoin:miter;stroke-miterlimit:10;stroke-dasharray:none;stroke-opacity:1"
       id="path107" /><path
       d="m 388.5,65.586 -3.5,10 -3.5,-10 z"
       style="fill:#c0c0c0;fill-opacity:1;fill-rule:nonzero;stroke:#c0c0c0;stroke-width:2;stroke-linecap:butt;stroke-linejoin:miter;stroke-miterlimit:10;stroke-dasharray:none;stroke-opacity:1"
       id="path109" /><path
       d="m 215,292 c 0,0 -116,0 -116,0 -6,0 -12,6 -12,12 0,0 0,12 0,12 0,6 6,12 12,12 0,0 116,0 116,0 6,0 12,-6 12,-12 0,0 0,-12 0,-12 0,-6 -6,-12 -12,-12"
       style="fill:none;stroke:#57d96c;stroke-width:2;stroke-linecap:butt;stroke-linejoin:miter;stroke-miterlimit:10;stroke-dasharray:none;stroke-opacity:1"
       id="path111" /><text
       style="font-variant:normal;font-weight:normal;font-size:9.99976px;font-family:'DejaVu Sans';-inkscape-font-specification:DejaVuSans;writing-mode:lr-tb;fill:#000000;fill-opacity:1;fill-rule:nonzero;stroke:none"
       id="text115"
       x="95"
       y="312.5"><tspan
         x="95 100.23987 106.22973 115.96949 119.7294 125.71925 131.70911 134.70903 139.9489 145.19878 154.93854 160.93839 164.68829 170.68816 176.67801 182.66786 188.65771 193.90759 199.14746 202.89737 208.88722 212.63713"
         y="312.5"
         sodipodi:role="line"
         id="tspan113">samtools_markdup_stats</tspan></text><path
       d="M 135.633,328.312 C 116.094,347.293 92.668,377.305 110,400 c 19.426,25.43 109.07,41.762 160.832,49.238"
       style="fill:none;stroke:#c0c0c0;stroke-width:2;stroke-linecap:butt;stroke-linejoin:miter;stroke-miterlimit:10;stroke-dasharray:none;stroke-opacity:1"
       id="path117" /><path
       d="m 271.539,445.805 9.418,4.855 -10.391,2.074 z"
       style="fill:#c0c0c0;fill-opacity:1;fill-rule:nonzero;stroke:#c0c0c0;stroke-width:2;stroke-linecap:butt;stroke-linejoin:miter;stroke-miterlimit:10;stroke-dasharray:none;stroke-opacity:1"
       id="path119" /><path
       d="m 156.242,328.168 c -0.32,7.699 -0.703,16.859 -1.058,25.414"
       style="fill:none;stroke:#c0c0c0;stroke-width:2;stroke-linecap:butt;stroke-linejoin:miter;stroke-miterlimit:10;stroke-dasharray:none;stroke-opacity:1"
       id="path127" /><path
       d="m 158.68,353.742 -3.914,9.844 -3.078,-10.137 z"
       style="fill:#c0c0c0;fill-opacity:1;fill-rule:nonzero;stroke:#c0c0c0;stroke-width:2;stroke-linecap:butt;stroke-linejoin:miter;stroke-miterlimit:10;stroke-dasharray:none;stroke-opacity:1"
       id="path129" /><path
       d="m 219.5,364 c 0,0 -92,0 -92,0 -6,0 -12,6 -12,12 0,0 0,12 0,12 0,6 6,12 12,12 0,0 92,0 92,0 6,0 12,-6 12,-12 0,0 0,-12 0,-12 0,-6 -6,-12 -12,-12"
       style="fill:none;stroke:#a0d957;stroke-width:2;stroke-linecap:butt;stroke-linejoin:miter;stroke-miterlimit:10;stroke-dasharray:none;stroke-opacity:1"
       id="path131" /><text
       style="font-variant:normal;font-weight:normal;font-size:9.99976px;font-family:'DejaVu Sans';-inkscape-font-specification:DejaVuSans;writing-mode:lr-tb;fill:#000000;fill-opacity:1;fill-rule:nonzero;stroke:none"
       id="text135"
       x="123.5"
       y="384.5"><tspan
         x="123.5 133.23976 139.24962 145.23947 148.2294 154.21925 159.45912 164.70898 174.44876 180.45862 186.44846 192.4483 197.68817 201.43811 205.18799 211.17786 217.16772"
         y="384.5"
         sodipodi:role="line"
         id="tspan133">medips_medestrand</tspan></text><path
       d="m 221.5,220 c 0,0 -123,0 -123,0 -6,0 -12,6 -12,12 0,0 0,12 0,12 0,6 6,12 12,12 0,0 123,0 123,0 6,0 12,-6 12,-12 0,0 0,-12 0,-12 0,-6 -6,-12 -12,-12"
       style="fill:none;stroke:#ced957;stroke-width:2;stroke-linecap:butt;stroke-linejoin:miter;stroke-miterlimit:10;stroke-dasharray:none;stroke-opacity:1"
       id="path141" /><text
       style="font-variant:normal;font-weight:normal;font-size:9.99976px;font-family:'DejaVu Sans';-inkscape-font-specification:DejaVuSans;writing-mode:lr-tb;fill:#000000;fill-opacity:1;fill-rule:nonzero;stroke:none"
       id="text145"
       x="94.5"
       y="240.5"><tspan
         x="94.5 99.739868 105.72973 115.46949 119.2294 125.21925 131.20911 134.20903 139.4489 144.69878 149.93864 155.9285 159.67841 163.42831 168.67819 171.66812 177.65797 183.64783 189.64767 195.63754 200.88742 206.12727 209.87718 215.87704 219.61694"
         y="240.5"
         sodipodi:role="line"
         id="tspan143">samtools_sort_index_stats</tspan></text><path
       d="m 159.242,256.168 c -0.32,7.699 -0.703,16.859 -1.058,25.414"
       style="fill:none;stroke:#c0c0c0;stroke-width:2;stroke-linecap:butt;stroke-linejoin:miter;stroke-miterlimit:10;stroke-dasharray:none;stroke-opacity:1"
       id="path147" /><path
       d="m 161.68,281.742 -3.914,9.844 -3.078,-10.137 z"
       style="fill:#c0c0c0;fill-opacity:1;fill-rule:nonzero;stroke:#c0c0c0;stroke-width:2;stroke-linecap:butt;stroke-linejoin:miter;stroke-miterlimit:10;stroke-dasharray:none;stroke-opacity:1"
       id="path149" /><path
       d="m 136.074,184.168 c 3.535,7.953 7.762,17.465 11.672,26.258"
       style="fill:none;stroke:#c0c0c0;stroke-width:2;stroke-linecap:butt;stroke-linejoin:miter;stroke-miterlimit:10;stroke-dasharray:none;stroke-opacity:1"
       id="path151" /><path
       d="m 150.953,209.027 0.863,10.559 -7.261,-7.715 z"
       style="fill:#c0c0c0;fill-opacity:1;fill-rule:nonzero;stroke:#c0c0c0;stroke-width:2;stroke-linecap:butt;stroke-linejoin:miter;stroke-miterlimit:10;stroke-dasharray:none;stroke-opacity:1"
       id="path153" /><path
       d="m 519,292 c 0,0 -116,0 -116,0 -6,0 -12,6 -12,12 0,0 0,12 0,12 0,6 6,12 12,12 0,0 116,0 116,0 6,0 12,-6 12,-12 0,0 0,-12 0,-12 0,-6 -6,-12 -12,-12"
       style="fill:none;stroke:#57d96c;stroke-width:2;stroke-linecap:butt;stroke-linejoin:miter;stroke-miterlimit:10;stroke-dasharray:none;stroke-opacity:1"
       id="path155" /><text
       style="font-variant:normal;font-weight:normal;font-size:9.99976px;font-family:'DejaVu Sans';-inkscape-font-specification:DejaVuSans;writing-mode:lr-tb;fill:#000000;fill-opacity:1;fill-rule:nonzero;stroke:none"
       id="text159"
       x="399"
       y="312.5"><tspan
         x="399 404.23987 410.22974 419.96948 423.7294 429.71924 435.70911 438.70905 443.94891 449.19879 458.93854 464.93839 468.68829 474.68817 480.67801 486.66785 492.65771 497.90759 503.14746 506.89737 512.88721 516.63715"
         y="312.5"
         sodipodi:role="line"
         id="tspan157">samtools_markdup_stats</tspan></text><path
       d="m 441.621,328.238 c -27.129,25.535 -76.531,72.032 -107.07,100.77"
       style="fill:none;stroke:#c0c0c0;stroke-width:2;stroke-linecap:butt;stroke-linejoin:miter;stroke-miterlimit:10;stroke-dasharray:none;stroke-opacity:1"
       id="path161" /><path
       d="m 336.902,431.605 -9.683,4.305 4.883,-9.402 z"
       style="fill:#c0c0c0;fill-opacity:1;fill-rule:nonzero;stroke:#c0c0c0;stroke-width:2;stroke-linecap:butt;stroke-linejoin:miter;stroke-miterlimit:10;stroke-dasharray:none;stroke-opacity:1"
       id="path163" /><path
       d="m 474.5,364 c 0,0 -45,0 -45,0 -6,0 -12,6 -12,12 0,0 0,12 0,12 0,6 6,12 12,12 0,0 45,0 45,0 6,0 12,-6 12,-12 0,0 0,-12 0,-12 0,-6 -6,-12 -12,-12"
       style="fill:none;stroke:#d98657;stroke-width:2;stroke-linecap:butt;stroke-linejoin:miter;stroke-miterlimit:10;stroke-dasharray:none;stroke-opacity:1"
       id="path165" /><text
       style="font-variant:normal;font-weight:normal;font-size:9.99976px;font-family:'DejaVu Sans';-inkscape-font-specification:DejaVuSans;writing-mode:lr-tb;fill:#000000;fill-opacity:1;fill-rule:nonzero;stroke:none"
       id="text169"
       x="425.5"
       y="384.5"><tspan
         x="425.5 428.48993 434.47977 439.71967 445.71951 449.46942 453.21933 458.46921 463.70908 466.69901 471.93887"
         y="384.5"
         sodipodi:role="line"
         id="tspan167">insert_size</tspan></text><path
       d="m 458.73,328.168 c -0.964,7.699 -2.109,16.859 -3.179,25.414"
       style="fill:none;stroke:#c0c0c0;stroke-width:2;stroke-linecap:butt;stroke-linejoin:miter;stroke-miterlimit:10;stroke-dasharray:none;stroke-opacity:1"
       id="path171" /><path
       d="m 459.016,354.098 -4.715,9.488 -2.231,-10.356 z"
       style="fill:#c0c0c0;fill-opacity:1;fill-rule:nonzero;stroke:#c0c0c0;stroke-width:2;stroke-linecap:butt;stroke-linejoin:miter;stroke-miterlimit:10;stroke-dasharray:none;stroke-opacity:1"
       id="path173" /><path
       d="m 609,364 c 0,0 -92,0 -92,0 -6,0 -12,6 -12,12 0,0 0,12 0,12 0,6 6,12 12,12 0,0 92,0 92,0 6,0 12,-6 12,-12 0,0 0,-12 0,-12 0,-6 -6,-12 -12,-12"
       style="fill:none;stroke:#a0d957;stroke-width:2;stroke-linecap:butt;stroke-linejoin:miter;stroke-miterlimit:10;stroke-dasharray:none;stroke-opacity:1"
       id="path175" /><text
       style="font-variant:normal;font-weight:normal;font-size:9.99976px;font-family:'DejaVu Sans';-inkscape-font-specification:DejaVuSans;writing-mode:lr-tb;fill:#000000;fill-opacity:1;fill-rule:nonzero;stroke:none"
       id="text179"
       x="513"
       y="384.5"><tspan
         x="513 522.73975 528.74963 534.73944 537.72937 543.71924 548.95911 554.20898 563.94873 569.95862 575.94849 581.9483 587.18817 590.93811 594.68799 600.67786 606.66772"
         y="384.5"
         sodipodi:role="line"
         id="tspan177">medips_medestrand</tspan></text><path
       d="m 486.738,328.168 c 12.805,9.039 28.453,20.086 42.235,29.812"
       style="fill:none;stroke:#c0c0c0;stroke-width:2;stroke-linecap:butt;stroke-linejoin:miter;stroke-miterlimit:10;stroke-dasharray:none;stroke-opacity:1"
       id="path181" /><path
       d="m 531.117,355.211 6.153,8.625 -10.188,-2.906 z"
       style="fill:#c0c0c0;fill-opacity:1;fill-rule:nonzero;stroke:#c0c0c0;stroke-width:2;stroke-linecap:butt;stroke-linejoin:miter;stroke-miterlimit:10;stroke-dasharray:none;stroke-opacity:1"
       id="path183" /><path
       d="m 517.5,220 c 0,0 -123,0 -123,0 -6,0 -12,6 -12,12 0,0 0,12 0,12 0,6 6,12 12,12 0,0 123,0 123,0 6,0 12,-6 12,-12 0,0 0,-12 0,-12 0,-6 -6,-12 -12,-12"
       style="fill:none;stroke:#ced957;stroke-width:2;stroke-linecap:butt;stroke-linejoin:miter;stroke-miterlimit:10;stroke-dasharray:none;stroke-opacity:1"
       id="path185" /><text
       style="font-variant:normal;font-weight:normal;font-size:9.99976px;font-family:'DejaVu Sans';-inkscape-font-specification:DejaVuSans;writing-mode:lr-tb;fill:#000000;fill-opacity:1;fill-rule:nonzero;stroke:none"
       id="text189"
       x="390.5"
       y="240.5"><tspan
         x="390.5 395.73987 401.72974 411.46948 415.2294 421.21924 427.20911 430.20905 435.44891 440.69879 445.93866 451.9285 455.67841 459.42831 464.67819 467.66812 473.65796 479.64783 485.64767 491.63754 496.88742 502.12726 505.8772 511.87704 515.61694"
         y="240.5"
         sodipodi:role="line"
         id="tspan187">samtools_sort_index_stats</tspan></text><path
       d="m 457.262,256.168 c 0.535,7.699 1.172,16.859 1.765,25.414"
       style="fill:none;stroke:#c0c0c0;stroke-width:2;stroke-linecap:butt;stroke-linejoin:miter;stroke-miterlimit:10;stroke-dasharray:none;stroke-opacity:1"
       id="path191" /><path
       d="m 462.52,281.367 -2.797,10.219 -4.188,-9.734 z"
       style="fill:#c0c0c0;fill-opacity:1;fill-rule:nonzero;stroke:#c0c0c0;stroke-width:2;stroke-linecap:butt;stroke-linejoin:miter;stroke-miterlimit:10;stroke-dasharray:none;stroke-opacity:1"
       id="path193" /><path
       d="m 433.57,184.168 c 3.278,7.871 7.192,17.262 10.825,25.98"
       style="fill:none;stroke:#c0c0c0;stroke-width:2;stroke-linecap:butt;stroke-linejoin:miter;stroke-miterlimit:10;stroke-dasharray:none;stroke-opacity:1"
       id="path195" /><path
       d="m 447.711,209.012 0.617,10.574 -7.078,-7.883 z"
       style="fill:#c0c0c0;fill-opacity:1;fill-rule:nonzero;stroke:#c0c0c0;stroke-width:2;stroke-linecap:butt;stroke-linejoin:miter;stroke-miterlimit:10;stroke-dasharray:none;stroke-opacity:1"
       id="path197" /><path
       d="m 190.184,399.555 c 24.688,11.543 57.848,27.043 82.961,38.785"
       style="fill:none;stroke:#c0c0c0;stroke-width:2;stroke-linecap:butt;stroke-linejoin:miter;stroke-miterlimit:10;stroke-dasharray:none;stroke-opacity:1"
       id="path199" /><path
       d="m 273.145,433.84 7.578,7.406 -10.543,-1.066 z"
       style="fill:#c0c0c0;fill-opacity:1;fill-rule:nonzero;stroke:#c0c0c0;stroke-width:2;stroke-linecap:butt;stroke-linejoin:miter;stroke-miterlimit:10;stroke-dasharray:none;stroke-opacity:1"
       id="path201" /><path
       d="m 417.141,399.43 c -21.996,10.996 -50.36,25.179 -72.657,36.328"
       style="fill:none;stroke:#c0c0c0;stroke-width:2;stroke-linecap:butt;stroke-linejoin:miter;stroke-miterlimit:10;stroke-dasharray:none;stroke-opacity:1"
       id="path203" /><path
       d="m 345.844,438.992 -10.508,1.34 7.379,-7.602 z"
       style="fill:#c0c0c0;fill-opacity:1;fill-rule:nonzero;stroke:#c0c0c0;stroke-width:2;stroke-linecap:butt;stroke-linejoin:miter;stroke-miterlimit:10;stroke-dasharray:none;stroke-opacity:1"
       id="path205" /><path
       d="M 504.816,398.43 C 455.66,412.309 386.75,431.766 344.863,443.59"
       style="fill:none;stroke:#c0c0c0;stroke-width:2;stroke-linecap:butt;stroke-linejoin:miter;stroke-miterlimit:10;stroke-dasharray:none;stroke-opacity:1"
       id="path211" /><path
       d="m 345.652,447.004 -10.574,-0.649 8.672,-6.085 z"
       style="fill:#c0c0c0;fill-opacity:1;fill-rule:nonzero;stroke:#c0c0c0;stroke-width:2;stroke-linecap:butt;stroke-linejoin:miter;stroke-miterlimit:10;stroke-dasharray:none;stroke-opacity:1"
       id="path213" /><text
       xml:space="preserve"
       style="font-style:normal;font-weight:normal;font-size:10px;line-height:1.25;font-family:sans-serif;fill:#000000;fill-opacity:1;stroke:none;stroke-width:0.75"
       x="129.20068"
       y="161.00507"
       id="text1321"><tspan
         sodipodi:role="line"
         id="tspan1319"
         style="font-size:10px;text-align:center;text-anchor:middle;stroke-width:0.75"
         x="129.20068"
         y="161.00507">bwa_map</tspan><tspan
         sodipodi:role="line"
         style="font-size:10px;text-align:center;text-anchor:middle;stroke-width:0.75"
         x="129.20068"
         y="173.50507"
         id="tspan1323">w/o spike-ins</tspan></text><path
       d="m 450.89766,148.69431 c 0,0 -52.96283,0 -52.96283,0 -7.94443,0 -15.88885,6 -15.88885,12 0,0 0,12 0,12 0,6 7.94442,12 15.88885,12 0,0 52.96283,0 52.96283,0 7.94443,0 15.88885,-6 15.88885,-12 0,0 0,-12 0,-12 0,-6 -7.94442,-12 -15.88885,-12"
       style="fill:none;stroke:#57d9c9;stroke-width:2.30137;stroke-linecap:butt;stroke-linejoin:miter;stroke-miterlimit:10;stroke-dasharray:none;stroke-opacity:1"
       id="path47-6" /><text
       xml:space="preserve"
       style="font-style:normal;font-weight:normal;font-size:10px;line-height:1.25;font-family:sans-serif;fill:#000000;fill-opacity:1;stroke:none;stroke-width:0.75"
       x="425.74664"
       y="161.69936"
       id="text1321-2"><tspan
         sodipodi:role="line"
         id="tspan1319-9"
         style="font-size:10px;text-align:center;text-anchor:middle;stroke-width:0.75"
         x="425.74664"
         y="161.69936">bwa_map</tspan><tspan
         sodipodi:role="line"
         style="font-size:10px;text-align:center;text-anchor:middle;stroke-width:0.75"
         x="425.74664"
         y="174.19936"
         id="tspan1323-2">w/o spike-ins</tspan></text><text
       xml:space="preserve"
       style="font-style:normal;font-weight:normal;font-size:10px;line-height:1.25;font-family:sans-serif;text-align:center;text-anchor:middle;fill:#000000;fill-opacity:1;stroke:none;stroke-width:0.75"
       x="92.773506"
       y="24.463655"
       id="text6210"><tspan
         sodipodi:role="line"
         style="font-size:10px;text-align:center;text-anchor:middle;stroke-width:0.75"
         x="92.773506"
         y="24.463655"
         id="tspan6212">single-end: A</tspan></text><path
       d="m 422.5307,4.1879658 c 0,0 -78.15379,0 -78.15379,0 -6.60454,0 -13.20909,6.0000002 -13.20909,12.0000002 0,0 0,12 0,12 0,6 6.60455,12 13.20909,12 0,0 78.15379,0 78.15379,0 6.60455,0 13.2091,-6 13.2091,-12 0,0 0,-12 0,-12 0,-6 -6.60455,-12.0000002 -13.2091,-12.0000002"
       style="fill:none;stroke:#57d99a;stroke-width:2.09834;stroke-linecap:butt;stroke-linejoin:miter;stroke-miterlimit:10;stroke-dasharray:none;stroke-opacity:1"
       id="path57-0" /><text
       xml:space="preserve"
       style="font-style:normal;font-weight:normal;font-size:10px;line-height:1.25;font-family:sans-serif;text-align:center;text-anchor:middle;fill:#000000;fill-opacity:1;stroke:none;stroke-width:0.75"
       x="383.66565"
       y="18.393471"
       id="text6210-7"><tspan
         sodipodi:role="line"
         style="font-size:10px;text-align:center;text-anchor:middle;stroke-width:0.75"
         x="383.66565"
         y="18.393471"
         id="tspan6212-9">paired-end:B</tspan><tspan
         sodipodi:role="line"
         style="font-size:10px;text-align:center;text-anchor:middle;stroke-width:0.75"
         x="383.66565"
         y="30.893471"
         id="tspan9369">extract_UMI p.r.n.</tspan></text></g></svg>
