<?xml version="1.0" encoding="UTF-8" standalone="no"?>
<!DOCTYPE svg PUBLIC "-//W3C//DTD SVG 1.1//EN"
 "http://www.w3.org/Graphics/SVG/1.1/DTD/svg11.dtd">
<!-- Generated by graphviz version 2.40.1 (20161225.0304)
 -->
<!-- Title: snakemake_dag Pages: 1 -->
<svg width="748pt" height="404pt"
 viewBox="0.00 0.00 747.50 404.00" xmlns="http://www.w3.org/2000/svg" xmlns:xlink="http://www.w3.org/1999/xlink">
<g id="graph0" class="graph" transform="scale(1 1) rotate(0) translate(4 400)">
<title>snakemake_dag</title>
<polygon fill="#ffffff" stroke="transparent" points="-4,4 -4,-400 743.5,-400 743.5,4 -4,4"/>
<!-- 0 -->
<g id="node1" class="node">
<title>0</title>
<path fill="none" stroke="#ced856" stroke-width="2" d="M383,-36C383,-36 353,-36 353,-36 347,-36 341,-30 341,-24 341,-24 341,-12 341,-12 341,-6 347,0 353,0 353,0 383,0 383,0 389,0 395,-6 395,-12 395,-12 395,-24 395,-24 395,-30 389,-36 383,-36"/>
<text text-anchor="middle" x="368" y="-15.5" font-family="sans" font-size="10.00" fill="#000000">all</text>
</g>
<!-- 1 -->
<g id="node2" class="node">
<title>1</title>
<path fill="none" stroke="#d8b456" stroke-width="2" d="M199.5,-108C199.5,-108 148.5,-108 148.5,-108 142.5,-108 136.5,-102 136.5,-96 136.5,-96 136.5,-84 136.5,-84 136.5,-78 142.5,-72 148.5,-72 148.5,-72 199.5,-72 199.5,-72 205.5,-72 211.5,-78 211.5,-84 211.5,-84 211.5,-96 211.5,-96 211.5,-102 205.5,-108 199.5,-108"/>
<text text-anchor="middle" x="174" y="-87.5" font-family="sans" font-size="10.00" fill="#000000">medestrand</text>
</g>
<!-- 1&#45;&gt;0 -->
<g id="edge1" class="edge">
<title>1&#45;&gt;0</title>
<path fill="none" stroke="#c0c0c0" stroke-width="2" d="M211.6928,-75.5124C214.8393,-74.3188 217.9731,-73.1355 221,-72 258.5078,-57.9292 301.5364,-42.167 331.3054,-31.3216"/>
<polygon fill="#c0c0c0" stroke="#c0c0c0" stroke-width="2" points="332.6659,-34.5511 340.8655,-27.8417 330.2715,-27.9734 332.6659,-34.5511"/>
</g>
<!-- 2 -->
<g id="node3" class="node">
<title>2</title>
<path fill="none" stroke="#d85656" stroke-width="2" d="M52,-252C52,-252 12,-252 12,-252 6,-252 0,-246 0,-240 0,-240 0,-228 0,-228 0,-222 6,-216 12,-216 12,-216 52,-216 52,-216 58,-216 64,-222 64,-228 64,-228 64,-240 64,-240 64,-246 58,-252 52,-252"/>
<text text-anchor="middle" x="32" y="-231.5" font-family="sans" font-size="10.00" fill="#000000">fastqc_pe</text>
</g>
<!-- 2&#45;&gt;0 -->
<g id="edge2" class="edge">
<title>2&#45;&gt;0</title>
<path fill="none" stroke="#c0c0c0" stroke-width="2" d="M35.0457,-215.8839C41.7446,-181.9876 61.0685,-109.0644 108,-72 142.1863,-45.0013 267.5845,-28.4367 330.8996,-21.614"/>
<polygon fill="#c0c0c0" stroke="#c0c0c0" stroke-width="2" points="331.2914,-25.0922 340.8703,-20.565 330.5589,-18.1306 331.2914,-25.0922"/>
</g>
<!-- 3 -->
<g id="node4" class="node">
<title>3</title>
<path fill="none" stroke="#56d8c9" stroke-width="2" d="M582,-180C582,-180 496,-180 496,-180 490,-180 484,-174 484,-168 484,-168 484,-156 484,-156 484,-150 490,-144 496,-144 496,-144 582,-144 582,-144 588,-144 594,-150 594,-156 594,-156 594,-168 594,-168 594,-174 588,-180 582,-180"/>
<text text-anchor="middle" x="539" y="-159.5" font-family="sans" font-size="10.00" fill="#000000">samtools_markdup</text>
</g>
<!-- 3&#45;&gt;0 -->
<g id="edge3" class="edge">
<title>3&#45;&gt;0</title>
<path fill="none" stroke="#c0c0c0" stroke-width="2" d="M523.7418,-143.8901C507.172,-124.8068 479.391,-94.4617 452,-72 437.0956,-59.7778 419.2935,-47.9866 403.9219,-38.5573"/>
<polygon fill="#c0c0c0" stroke="#c0c0c0" stroke-width="2" points="405.5633,-35.46 395.1924,-33.293 401.9484,-41.4544 405.5633,-35.46"/>
</g>
<!-- 8 -->
<g id="node9" class="node">
<title>8</title>
<path fill="none" stroke="#56d86b" stroke-width="2" d="M561.5,-108C561.5,-108 516.5,-108 516.5,-108 510.5,-108 504.5,-102 504.5,-96 504.5,-96 504.5,-84 504.5,-84 504.5,-78 510.5,-72 516.5,-72 516.5,-72 561.5,-72 561.5,-72 567.5,-72 573.5,-78 573.5,-84 573.5,-84 573.5,-96 573.5,-96 573.5,-102 567.5,-108 561.5,-108"/>
<text text-anchor="middle" x="539" y="-87.5" font-family="sans" font-size="10.00" fill="#000000">insert_size</text>
</g>
<!-- 3&#45;&gt;8 -->
<g id="edge20" class="edge">
<title>3&#45;&gt;8</title>
<path fill="none" stroke="#c0c0c0" stroke-width="2" d="M539,-143.8314C539,-136.131 539,-126.9743 539,-118.4166"/>
<polygon fill="#c0c0c0" stroke="#c0c0c0" stroke-width="2" points="542.5001,-118.4132 539,-108.4133 535.5001,-118.4133 542.5001,-118.4132"/>
</g>
<!-- 9 -->
<g id="node10" class="node">
<title>9</title>
<path fill="none" stroke="#5682d8" stroke-width="2" d="M634,-108C634,-108 604,-108 604,-108 598,-108 592,-102 592,-96 592,-96 592,-84 592,-84 592,-78 598,-72 604,-72 604,-72 634,-72 634,-72 640,-72 646,-78 646,-84 646,-84 646,-96 646,-96 646,-102 640,-108 634,-108"/>
<text text-anchor="middle" x="619" y="-87.5" font-family="sans" font-size="10.00" fill="#000000">medips</text>
</g>
<!-- 3&#45;&gt;9 -->
<g id="edge21" class="edge">
<title>3&#45;&gt;9</title>
<path fill="none" stroke="#c0c0c0" stroke-width="2" d="M559.1874,-143.8314C568.8514,-135.1337 580.5796,-124.5783 591.0816,-115.1265"/>
<polygon fill="#c0c0c0" stroke="#c0c0c0" stroke-width="2" points="593.7275,-117.454 598.8191,-108.1628 589.0447,-112.251 593.7275,-117.454"/>
</g>
<!-- 11 -->
<g id="node12" class="node">
<title>11</title>
<path fill="none" stroke="#d8b456" stroke-width="2" d="M727.5,-108C727.5,-108 676.5,-108 676.5,-108 670.5,-108 664.5,-102 664.5,-96 664.5,-96 664.5,-84 664.5,-84 664.5,-78 670.5,-72 676.5,-72 676.5,-72 727.5,-72 727.5,-72 733.5,-72 739.5,-78 739.5,-84 739.5,-84 739.5,-96 739.5,-96 739.5,-102 733.5,-108 727.5,-108"/>
<text text-anchor="middle" x="702" y="-87.5" font-family="sans" font-size="10.00" fill="#000000">medestrand</text>
</g>
<!-- 3&#45;&gt;11 -->
<g id="edge23" class="edge">
<title>3&#45;&gt;11</title>
<path fill="none" stroke="#c0c0c0" stroke-width="2" d="M580.1318,-143.8314C602.9448,-133.7544 631.4034,-121.1838 655.0812,-110.7249"/>
<polygon fill="#c0c0c0" stroke="#c0c0c0" stroke-width="2" points="656.5001,-113.9244 664.2333,-106.6822 653.6717,-107.5213 656.5001,-113.9244"/>
</g>
<!-- 4 -->
<g id="node5" class="node">
<title>4</title>
<path fill="none" stroke="#5682d8" stroke-width="2" d="M272,-108C272,-108 242,-108 242,-108 236,-108 230,-102 230,-96 230,-96 230,-84 230,-84 230,-78 236,-72 242,-72 242,-72 272,-72 272,-72 278,-72 284,-78 284,-84 284,-84 284,-96 284,-96 284,-102 278,-108 272,-108"/>
<text text-anchor="middle" x="257" y="-87.5" font-family="sans" font-size="10.00" fill="#000000">medips</text>
</g>
<!-- 4&#45;&gt;0 -->
<g id="edge4" class="edge">
<title>4&#45;&gt;0</title>
<path fill="none" stroke="#c0c0c0" stroke-width="2" d="M284.1537,-72.3868C298.6669,-62.9728 316.7152,-51.2658 332.3452,-41.1274"/>
<polygon fill="#c0c0c0" stroke="#c0c0c0" stroke-width="2" points="334.257,-44.0592 340.742,-35.6809 330.4477,-38.1865 334.257,-44.0592"/>
</g>
<!-- 5 -->
<g id="node6" class="node">
<title>5</title>
<path fill="none" stroke="#d85656" stroke-width="2" d="M398,-180C398,-180 358,-180 358,-180 352,-180 346,-174 346,-168 346,-168 346,-156 346,-156 346,-150 352,-144 358,-144 358,-144 398,-144 398,-144 404,-144 410,-150 410,-156 410,-156 410,-168 410,-168 410,-174 404,-180 398,-180"/>
<text text-anchor="middle" x="378" y="-159.5" font-family="sans" font-size="10.00" fill="#000000">fastqc_pe</text>
</g>
<!-- 5&#45;&gt;0 -->
<g id="edge5" class="edge">
<title>5&#45;&gt;0</title>
<path fill="none" stroke="#c0c0c0" stroke-width="2" d="M379.8117,-143.6672C381.2833,-125.4373 382.7115,-96.7015 380,-72 379.0716,-63.5425 377.3486,-54.4715 375.4922,-46.2246"/>
<polygon fill="#c0c0c0" stroke="#c0c0c0" stroke-width="2" points="378.8544,-45.2356 373.1191,-36.3273 372.0473,-46.8678 378.8544,-45.2356"/>
</g>
<!-- 6 -->
<g id="node7" class="node">
<title>6</title>
<path fill="none" stroke="#d88556" stroke-width="2" d="M188,-252C188,-252 94,-252 94,-252 88,-252 82,-246 82,-240 82,-240 82,-228 82,-228 82,-222 88,-216 94,-216 94,-216 188,-216 188,-216 194,-216 200,-222 200,-228 200,-228 200,-240 200,-240 200,-246 194,-252 188,-252"/>
<text text-anchor="middle" x="141" y="-231.5" font-family="sans" font-size="10.00" fill="#000000">samtools_sort_index</text>
</g>
<!-- 6&#45;&gt;0 -->
<g id="edge6" class="edge">
<title>6&#45;&gt;0</title>
<path fill="none" stroke="#c0c0c0" stroke-width="2" d="M127.2037,-215.5772C120.5974,-205.6044 113.3977,-192.743 110,-180 103.7349,-156.5026 115.2923,-73.9163 117,-72 144.893,-40.6999 267.3274,-26.2416 330.2973,-20.7747"/>
<polygon fill="#c0c0c0" stroke="#c0c0c0" stroke-width="2" points="330.925,-24.2345 340.5991,-19.9146 330.3426,-17.2588 330.925,-24.2345"/>
</g>
<!-- 7 -->
<g id="node8" class="node">
<title>7</title>
<path fill="none" stroke="#56d8c9" stroke-width="2" d="M217,-180C217,-180 131,-180 131,-180 125,-180 119,-174 119,-168 119,-168 119,-156 119,-156 119,-150 125,-144 131,-144 131,-144 217,-144 217,-144 223,-144 229,-150 229,-156 229,-156 229,-168 229,-168 229,-174 223,-180 217,-180"/>
<text text-anchor="middle" x="174" y="-159.5" font-family="sans" font-size="10.00" fill="#000000">samtools_markdup</text>
</g>
<!-- 6&#45;&gt;7 -->
<g id="edge19" class="edge">
<title>6&#45;&gt;7</title>
<path fill="none" stroke="#c0c0c0" stroke-width="2" d="M149.3273,-215.8314C152.973,-207.8771 157.3309,-198.369 161.3627,-189.5723"/>
<polygon fill="#c0c0c0" stroke="#c0c0c0" stroke-width="2" points="164.5757,-190.9622 165.5606,-180.4133 158.2123,-188.0456 164.5757,-190.9622"/>
</g>
<!-- 7&#45;&gt;0 -->
<g id="edge7" class="edge">
<title>7&#45;&gt;0</title>
<path fill="none" stroke="#c0c0c0" stroke-width="2" d="M152.7881,-143.8769C133.006,-124.7826 109.041,-94.4283 127,-72 152.0814,-40.6768 269.3171,-26.2903 330.5441,-20.8187"/>
<polygon fill="#c0c0c0" stroke="#c0c0c0" stroke-width="2" points="330.9153,-24.2998 340.5792,-19.957 330.3164,-17.3254 330.9153,-24.2998"/>
</g>
<!-- 7&#45;&gt;1 -->
<g id="edge13" class="edge">
<title>7&#45;&gt;1</title>
<path fill="none" stroke="#c0c0c0" stroke-width="2" d="M174,-143.8314C174,-136.131 174,-126.9743 174,-118.4166"/>
<polygon fill="#c0c0c0" stroke="#c0c0c0" stroke-width="2" points="177.5001,-118.4132 174,-108.4133 170.5001,-118.4133 177.5001,-118.4132"/>
</g>
<!-- 7&#45;&gt;4 -->
<g id="edge16" class="edge">
<title>7&#45;&gt;4</title>
<path fill="none" stroke="#c0c0c0" stroke-width="2" d="M194.9444,-143.8314C205.0691,-135.0485 217.3777,-124.3712 228.3548,-114.8489"/>
<polygon fill="#c0c0c0" stroke="#c0c0c0" stroke-width="2" points="230.8019,-117.3595 236.0623,-108.1628 226.2149,-112.0718 230.8019,-117.3595"/>
</g>
<!-- 10 -->
<g id="node11" class="node">
<title>10</title>
<path fill="none" stroke="#56d86b" stroke-width="2" d="M359.5,-108C359.5,-108 314.5,-108 314.5,-108 308.5,-108 302.5,-102 302.5,-96 302.5,-96 302.5,-84 302.5,-84 302.5,-78 308.5,-72 314.5,-72 314.5,-72 359.5,-72 359.5,-72 365.5,-72 371.5,-78 371.5,-84 371.5,-84 371.5,-96 371.5,-96 371.5,-102 365.5,-108 359.5,-108"/>
<text text-anchor="middle" x="337" y="-87.5" font-family="sans" font-size="10.00" fill="#000000">insert_size</text>
</g>
<!-- 7&#45;&gt;10 -->
<g id="edge22" class="edge">
<title>7&#45;&gt;10</title>
<path fill="none" stroke="#c0c0c0" stroke-width="2" d="M215.1318,-143.8314C238.9439,-133.3131 268.9069,-120.0779 293.1638,-109.3632"/>
<polygon fill="#c0c0c0" stroke="#c0c0c0" stroke-width="2" points="294.761,-112.484 302.4942,-105.2418 291.9326,-106.0809 294.761,-112.484"/>
</g>
<!-- 8&#45;&gt;0 -->
<g id="edge8" class="edge">
<title>8&#45;&gt;0</title>
<path fill="none" stroke="#c0c0c0" stroke-width="2" d="M504.3956,-75.4297C475.4613,-63.2469 434.3004,-45.916 404.7754,-33.4844"/>
<polygon fill="#c0c0c0" stroke="#c0c0c0" stroke-width="2" points="405.8177,-30.1257 395.2431,-29.4708 403.1013,-36.5772 405.8177,-30.1257"/>
</g>
<!-- 9&#45;&gt;0 -->
<g id="edge9" class="edge">
<title>9&#45;&gt;0</title>
<path fill="none" stroke="#c0c0c0" stroke-width="2" d="M591.7936,-75.9895C588.5349,-74.5433 585.221,-73.1757 582,-72 521.6462,-49.9707 448.5477,-33.633 405.2913,-24.9816"/>
<polygon fill="#c0c0c0" stroke="#c0c0c0" stroke-width="2" points="405.7118,-21.4973 395.224,-22.9995 404.3595,-28.3654 405.7118,-21.4973"/>
</g>
<!-- 10&#45;&gt;0 -->
<g id="edge10" class="edge">
<title>10&#45;&gt;0</title>
<path fill="none" stroke="#c0c0c0" stroke-width="2" d="M344.8226,-71.8314C348.2109,-63.9617 352.2541,-54.5712 356.0076,-45.8533"/>
<polygon fill="#c0c0c0" stroke="#c0c0c0" stroke-width="2" points="359.3321,-46.9822 360.0721,-36.4133 352.9027,-44.214 359.3321,-46.9822"/>
</g>
<!-- 11&#45;&gt;0 -->
<g id="edge11" class="edge">
<title>11&#45;&gt;0</title>
<path fill="none" stroke="#c0c0c0" stroke-width="2" d="M664.4911,-74.9526C661.304,-73.8826 658.1107,-72.8806 655,-72 567.0064,-47.0907 460.5313,-30.475 405.3027,-22.8318"/>
<polygon fill="#c0c0c0" stroke="#c0c0c0" stroke-width="2" points="405.6627,-19.3486 395.2816,-21.466 404.7173,-26.2845 405.6627,-19.3486"/>
</g>
<!-- 12 -->
<g id="node13" class="node">
<title>12</title>
<path fill="none" stroke="#d88556" stroke-width="2" d="M512,-252C512,-252 418,-252 418,-252 412,-252 406,-246 406,-240 406,-240 406,-228 406,-228 406,-222 412,-216 418,-216 418,-216 512,-216 512,-216 518,-216 524,-222 524,-228 524,-228 524,-240 524,-240 524,-246 518,-252 512,-252"/>
<text text-anchor="middle" x="465" y="-231.5" font-family="sans" font-size="10.00" fill="#000000">samtools_sort_index</text>
</g>
<!-- 12&#45;&gt;0 -->
<g id="edge12" class="edge">
<title>12&#45;&gt;0</title>
<path fill="none" stroke="#c0c0c0" stroke-width="2" d="M457.5564,-215.8747C445.1071,-185.7712 419.0542,-123.6618 395,-72 390.9497,-63.3012 386.3435,-53.9182 382.0968,-45.4529"/>
<polygon fill="#c0c0c0" stroke="#c0c0c0" stroke-width="2" points="385.14,-43.7148 377.5038,-36.3705 378.8933,-46.8738 385.14,-43.7148"/>
</g>
<!-- 12&#45;&gt;3 -->
<g id="edge15" class="edge">
<title>12&#45;&gt;3</title>
<path fill="none" stroke="#c0c0c0" stroke-width="2" d="M483.6733,-215.8314C492.5249,-207.219 503.2486,-196.7851 512.8895,-187.4048"/>
<polygon fill="#c0c0c0" stroke="#c0c0c0" stroke-width="2" points="515.6061,-189.645 520.3326,-180.1628 510.7246,-184.6279 515.6061,-189.645"/>
</g>
<!-- 13 -->
<g id="node14" class="node">
<title>13</title>
<path fill="none" stroke="#70d856" stroke-width="2" d="M114,-396C114,-396 48,-396 48,-396 42,-396 36,-390 36,-384 36,-384 36,-372 36,-372 36,-366 42,-360 48,-360 48,-360 114,-360 114,-360 120,-360 126,-366 126,-372 126,-372 126,-384 126,-384 126,-390 120,-396 114,-396"/>
<text text-anchor="middle" x="81" y="-381" font-family="sans" font-size="10.00" fill="#000000">trim_galore_pe</text>
<text text-anchor="middle" x="81" y="-370" font-family="sans" font-size="10.00" fill="#000000">sample: A</text>
</g>
<!-- 13&#45;&gt;2 -->
<g id="edge14" class="edge">
<title>13&#45;&gt;2</title>
<path fill="none" stroke="#c0c0c0" stroke-width="2" d="M74.7941,-359.7623C66.3628,-334.9846 51.216,-290.4714 41.3896,-261.5939"/>
<polygon fill="#c0c0c0" stroke="#c0c0c0" stroke-width="2" points="44.6904,-260.429 38.1555,-252.0896 38.0635,-262.6841 44.6904,-260.429"/>
</g>
<!-- 15 -->
<g id="node16" class="node">
<title>15</title>
<path fill="none" stroke="#9fd856" stroke-width="2" d="M137,-324C137,-324 97,-324 97,-324 91,-324 85,-318 85,-312 85,-312 85,-300 85,-300 85,-294 91,-288 97,-288 97,-288 137,-288 137,-288 143,-288 149,-294 149,-300 149,-300 149,-312 149,-312 149,-318 143,-324 137,-324"/>
<text text-anchor="middle" x="117" y="-303.5" font-family="sans" font-size="10.00" fill="#000000">bwa_map</text>
</g>
<!-- 13&#45;&gt;15 -->
<g id="edge25" class="edge">
<title>13&#45;&gt;15</title>
<path fill="none" stroke="#c0c0c0" stroke-width="2" d="M90.0843,-359.8314C94.0615,-351.8771 98.8155,-342.369 103.2139,-333.5723"/>
<polygon fill="#c0c0c0" stroke="#c0c0c0" stroke-width="2" points="106.4517,-334.9228 107.7934,-324.4133 100.1907,-331.7923 106.4517,-334.9228"/>
</g>
<!-- 14 -->
<g id="node15" class="node">
<title>14</title>
<path fill="none" stroke="#70d856" stroke-width="2" d="M447,-396C447,-396 381,-396 381,-396 375,-396 369,-390 369,-384 369,-384 369,-372 369,-372 369,-366 375,-360 381,-360 381,-360 447,-360 447,-360 453,-360 459,-366 459,-372 459,-372 459,-384 459,-384 459,-390 453,-396 447,-396"/>
<text text-anchor="middle" x="414" y="-381" font-family="sans" font-size="10.00" fill="#000000">trim_galore_pe</text>
<text text-anchor="middle" x="414" y="-370" font-family="sans" font-size="10.00" fill="#000000">sample: B</text>
</g>
<!-- 14&#45;&gt;5 -->
<g id="edge17" class="edge">
<title>14&#45;&gt;5</title>
<path fill="none" stroke="#c0c0c0" stroke-width="2" d="M410.9926,-359.9555C404.7191,-322.3144 390.1978,-235.1867 382.6874,-190.1246"/>
<polygon fill="#c0c0c0" stroke="#c0c0c0" stroke-width="2" points="386.1206,-189.4336 381.0242,-180.1451 379.2159,-190.5844 386.1206,-189.4336"/>
</g>
<!-- 16 -->
<g id="node17" class="node">
<title>16</title>
<path fill="none" stroke="#9fd856" stroke-width="2" d="M471,-324C471,-324 431,-324 431,-324 425,-324 419,-318 419,-312 419,-312 419,-300 419,-300 419,-294 425,-288 431,-288 431,-288 471,-288 471,-288 477,-288 483,-294 483,-300 483,-300 483,-312 483,-312 483,-318 477,-324 471,-324"/>
<text text-anchor="middle" x="451" y="-303.5" font-family="sans" font-size="10.00" fill="#000000">bwa_map</text>
</g>
<!-- 14&#45;&gt;16 -->
<g id="edge26" class="edge">
<title>14&#45;&gt;16</title>
<path fill="none" stroke="#c0c0c0" stroke-width="2" d="M423.3367,-359.8314C427.4243,-351.8771 432.3104,-342.369 436.8309,-333.5723"/>
<polygon fill="#c0c0c0" stroke="#c0c0c0" stroke-width="2" points="440.0799,-334.9074 441.5376,-324.4133 433.8539,-331.7078 440.0799,-334.9074"/>
</g>
<!-- 15&#45;&gt;6 -->
<g id="edge18" class="edge">
<title>15&#45;&gt;6</title>
<path fill="none" stroke="#c0c0c0" stroke-width="2" d="M123.0562,-287.8314C125.6512,-280.0463 128.7424,-270.7729 131.6218,-262.1347"/>
<polygon fill="#c0c0c0" stroke="#c0c0c0" stroke-width="2" points="135.0203,-263.0069 134.8622,-252.4133 128.3795,-260.7933 135.0203,-263.0069"/>
</g>
<!-- 16&#45;&gt;12 -->
<g id="edge24" class="edge">
<title>16&#45;&gt;12</title>
<path fill="none" stroke="#c0c0c0" stroke-width="2" d="M454.5328,-287.8314C456.0301,-280.131 457.8105,-270.9743 459.4745,-262.4166"/>
<polygon fill="#c0c0c0" stroke="#c0c0c0" stroke-width="2" points="462.9465,-262.8975 461.4196,-252.4133 456.0752,-261.5614 462.9465,-262.8975"/>
</g>
</g>
</svg>
