<?xml version="1.0" encoding="UTF-8" standalone="no"?>
<!DOCTYPE svg PUBLIC "-//W3C//DTD SVG 1.1//EN"
 "http://www.w3.org/Graphics/SVG/1.1/DTD/svg11.dtd">
<!-- Generated by graphviz version 2.40.1 (20161225.0304)
 -->
<!-- Title: snakemake_dag Pages: 1 -->
<svg width="440pt" height="332pt"
 viewBox="0.00 0.00 440.00 332.00" xmlns="http://www.w3.org/2000/svg" xmlns:xlink="http://www.w3.org/1999/xlink">
<g id="graph0" class="graph" transform="scale(1 1) rotate(0) translate(4 328)">
<title>snakemake_dag</title>
<polygon fill="#ffffff" stroke="transparent" points="-4,4 -4,-328 436,-328 436,4 -4,4"/>
<!-- 0 -->
<g id="node1" class="node">
<title>0</title>
<path fill="none" stroke="#d8cb56" stroke-width="2" stroke-dasharray="5,2" d="M210.5,-36C210.5,-36 180.5,-36 180.5,-36 174.5,-36 168.5,-30 168.5,-24 168.5,-24 168.5,-12 168.5,-12 168.5,-6 174.5,0 180.5,0 180.5,0 210.5,0 210.5,0 216.5,0 222.5,-6 222.5,-12 222.5,-12 222.5,-24 222.5,-24 222.5,-30 216.5,-36 210.5,-36"/>
<text text-anchor="middle" x="195.5" y="-15.5" font-family="sans" font-size="10.00" fill="#000000">all</text>
</g>
<!-- 1 -->
<g id="node2" class="node">
<title>1</title>
<path fill="none" stroke="#70d856" stroke-width="2" stroke-dasharray="5,2" d="M47,-180C47,-180 12,-180 12,-180 6,-180 0,-174 0,-168 0,-168 0,-156 0,-156 0,-150 6,-144 12,-144 12,-144 47,-144 47,-144 53,-144 59,-150 59,-156 59,-156 59,-168 59,-168 59,-174 53,-180 47,-180"/>
<text text-anchor="middle" x="29.5" y="-159.5" font-family="sans" font-size="10.00" fill="#000000">fastqc_se</text>
</g>
<!-- 1&#45;&gt;0 -->
<g id="edge1" class="edge">
<title>1&#45;&gt;0</title>
<path fill="none" stroke="#c0c0c0" stroke-width="2" d="M35.4155,-143.9331C42.7362,-124.0319 56.9381,-92.1806 78.5,-72 101.0385,-50.9054 133.2728,-36.8624 158.2022,-28.3979"/>
<polygon fill="#c0c0c0" stroke="#c0c0c0" stroke-width="2" points="159.6089,-31.6215 168.0459,-25.2131 157.4541,-24.9614 159.6089,-31.6215"/>
</g>
<!-- 2 -->
<g id="node3" class="node">
<title>2</title>
<path fill="none" stroke="#afd856" stroke-width="2" stroke-dasharray="5,2" d="M420,-108C420,-108 343,-108 343,-108 337,-108 331,-102 331,-96 331,-96 331,-84 331,-84 331,-78 337,-72 343,-72 343,-72 420,-72 420,-72 426,-72 432,-78 432,-84 432,-84 432,-96 432,-96 432,-102 426,-108 420,-108"/>
<text text-anchor="middle" x="381.5" y="-87.5" font-family="sans" font-size="10.00" fill="#000000">samtools_markdup</text>
</g>
<!-- 2&#45;&gt;0 -->
<g id="edge2" class="edge">
<title>2&#45;&gt;0</title>
<path fill="none" stroke="#c0c0c0" stroke-width="2" d="M334.5643,-71.8314C302.7537,-59.5175 261.3233,-43.48 231.9828,-32.1224"/>
<polygon fill="#c0c0c0" stroke="#c0c0c0" stroke-width="2" points="233.1165,-28.8082 222.5274,-28.4622 230.5895,-35.3362 233.1165,-28.8082"/>
</g>
<!-- 3 -->
<g id="node4" class="node">
<title>3</title>
<path fill="none" stroke="#56c9d8" stroke-width="2" stroke-dasharray="5,2" d="M173.5,-180C173.5,-180 89.5,-180 89.5,-180 83.5,-180 77.5,-174 77.5,-168 77.5,-168 77.5,-156 77.5,-156 77.5,-150 83.5,-144 89.5,-144 89.5,-144 173.5,-144 173.5,-144 179.5,-144 185.5,-150 185.5,-156 185.5,-156 185.5,-168 185.5,-168 185.5,-174 179.5,-180 173.5,-180"/>
<text text-anchor="middle" x="131.5" y="-159.5" font-family="sans" font-size="10.00" fill="#000000">samtools_sort_index</text>
</g>
<!-- 3&#45;&gt;0 -->
<g id="edge3" class="edge">
<title>3&#45;&gt;0</title>
<path fill="none" stroke="#c0c0c0" stroke-width="2" d="M111.3815,-143.8897C93.2916,-125.3337 71.6696,-95.8978 86.5,-72 102.0617,-46.9238 133.1144,-33.1336 158.1083,-25.7801"/>
<polygon fill="#c0c0c0" stroke="#c0c0c0" stroke-width="2" points="159.2984,-29.0841 168.0378,-23.0946 157.4708,-22.3269 159.2984,-29.0841"/>
</g>
<!-- 6 -->
<g id="node7" class="node">
<title>6</title>
<path fill="none" stroke="#afd856" stroke-width="2" stroke-dasharray="5,2" d="M185,-108C185,-108 108,-108 108,-108 102,-108 96,-102 96,-96 96,-96 96,-84 96,-84 96,-78 102,-72 108,-72 108,-72 185,-72 185,-72 191,-72 197,-78 197,-84 197,-84 197,-96 197,-96 197,-102 191,-108 185,-108"/>
<text text-anchor="middle" x="146.5" y="-87.5" font-family="sans" font-size="10.00" fill="#000000">samtools_markdup</text>
</g>
<!-- 3&#45;&gt;6 -->
<g id="edge12" class="edge">
<title>3&#45;&gt;6</title>
<path fill="none" stroke="#c0c0c0" stroke-width="2" d="M135.2851,-143.8314C136.8894,-136.131 138.797,-126.9743 140.5799,-118.4166"/>
<polygon fill="#c0c0c0" stroke="#c0c0c0" stroke-width="2" points="144.0507,-118.9169 142.6639,-108.4133 137.1979,-117.4892 144.0507,-118.9169"/>
</g>
<!-- 4 -->
<g id="node5" class="node">
<title>4</title>
<path fill="none" stroke="#70d856" stroke-width="2" stroke-dasharray="5,2" d="M262,-108C262,-108 227,-108 227,-108 221,-108 215,-102 215,-96 215,-96 215,-84 215,-84 215,-78 221,-72 227,-72 227,-72 262,-72 262,-72 268,-72 274,-78 274,-84 274,-84 274,-96 274,-96 274,-102 268,-108 262,-108"/>
<text text-anchor="middle" x="244.5" y="-87.5" font-family="sans" font-size="10.00" fill="#000000">fastqc_se</text>
</g>
<!-- 4&#45;&gt;0 -->
<g id="edge4" class="edge">
<title>4&#45;&gt;0</title>
<path fill="none" stroke="#c0c0c0" stroke-width="2" d="M232.1352,-71.8314C226.5491,-63.6232 219.837,-53.7606 213.6928,-44.7323"/>
<polygon fill="#c0c0c0" stroke="#c0c0c0" stroke-width="2" points="216.551,-42.7112 208.0313,-36.4133 210.764,-46.6496 216.551,-42.7112"/>
</g>
<!-- 5 -->
<g id="node6" class="node">
<title>5</title>
<path fill="none" stroke="#56c9d8" stroke-width="2" stroke-dasharray="5,2" d="M368.5,-180C368.5,-180 284.5,-180 284.5,-180 278.5,-180 272.5,-174 272.5,-168 272.5,-168 272.5,-156 272.5,-156 272.5,-150 278.5,-144 284.5,-144 284.5,-144 368.5,-144 368.5,-144 374.5,-144 380.5,-150 380.5,-156 380.5,-156 380.5,-168 380.5,-168 380.5,-174 374.5,-180 368.5,-180"/>
<text text-anchor="middle" x="326.5" y="-159.5" font-family="sans" font-size="10.00" fill="#000000">samtools_sort_index</text>
</g>
<!-- 5&#45;&gt;0 -->
<g id="edge5" class="edge">
<title>5&#45;&gt;0</title>
<path fill="none" stroke="#c0c0c0" stroke-width="2" d="M320.9476,-143.682C314.3056,-124.1443 301.6277,-93.1593 282.5,-72 268.418,-56.4223 248.8081,-43.7231 231.77,-34.5628"/>
<polygon fill="#c0c0c0" stroke="#c0c0c0" stroke-width="2" points="233.1121,-31.3169 222.6204,-29.842 229.9024,-37.5376 233.1121,-31.3169"/>
</g>
<!-- 5&#45;&gt;2 -->
<g id="edge8" class="edge">
<title>5&#45;&gt;2</title>
<path fill="none" stroke="#c0c0c0" stroke-width="2" d="M340.3788,-143.8314C346.7136,-135.5386 354.3384,-125.557 361.2926,-116.4533"/>
<polygon fill="#c0c0c0" stroke="#c0c0c0" stroke-width="2" points="364.1452,-118.4847 367.4343,-108.4133 358.5825,-114.2353 364.1452,-118.4847"/>
</g>
<!-- 6&#45;&gt;0 -->
<g id="edge6" class="edge">
<title>6&#45;&gt;0</title>
<path fill="none" stroke="#c0c0c0" stroke-width="2" d="M158.8648,-71.8314C164.4509,-63.6232 171.163,-53.7606 177.3072,-44.7323"/>
<polygon fill="#c0c0c0" stroke="#c0c0c0" stroke-width="2" points="180.236,-46.6496 182.9687,-36.4133 174.449,-42.7112 180.236,-46.6496"/>
</g>
<!-- 7 -->
<g id="node8" class="node">
<title>7</title>
<path fill="none" stroke="#d88d56" stroke-width="2" stroke-dasharray="5,2" d="M105,-324C105,-324 46,-324 46,-324 40,-324 34,-318 34,-312 34,-312 34,-300 34,-300 34,-294 40,-288 46,-288 46,-288 105,-288 105,-288 111,-288 117,-294 117,-300 117,-300 117,-312 117,-312 117,-318 111,-324 105,-324"/>
<text text-anchor="middle" x="75.5" y="-309" font-family="sans" font-size="10.00" fill="#000000">trim_galore_se</text>
<text text-anchor="middle" x="75.5" y="-298" font-family="sans" font-size="10.00" fill="#000000">sample: A</text>
</g>
<!-- 7&#45;&gt;1 -->
<g id="edge7" class="edge">
<title>7&#45;&gt;1</title>
<path fill="none" stroke="#c0c0c0" stroke-width="2" d="M69.6741,-287.7623C61.7935,-263.0928 47.6635,-218.8598 38.4358,-189.9731"/>
<polygon fill="#c0c0c0" stroke="#c0c0c0" stroke-width="2" points="41.6557,-188.5503 35.2786,-180.0896 34.9876,-190.6805 41.6557,-188.5503"/>
</g>
<!-- 8 -->
<g id="node9" class="node">
<title>8</title>
<path fill="none" stroke="#56d873" stroke-width="2" stroke-dasharray="5,2" d="M127.5,-252C127.5,-252 91.5,-252 91.5,-252 85.5,-252 79.5,-246 79.5,-240 79.5,-240 79.5,-228 79.5,-228 79.5,-222 85.5,-216 91.5,-216 91.5,-216 127.5,-216 127.5,-216 133.5,-216 139.5,-222 139.5,-228 139.5,-228 139.5,-240 139.5,-240 139.5,-246 133.5,-252 127.5,-252"/>
<text text-anchor="middle" x="109.5" y="-231.5" font-family="sans" font-size="10.00" fill="#000000">bwa_map</text>
</g>
<!-- 7&#45;&gt;8 -->
<g id="edge13" class="edge">
<title>7&#45;&gt;8</title>
<path fill="none" stroke="#c0c0c0" stroke-width="2" d="M84.0796,-287.8314C87.8358,-279.8771 92.3257,-270.369 96.4798,-261.5723"/>
<polygon fill="#c0c0c0" stroke="#c0c0c0" stroke-width="2" points="99.6996,-262.9503 100.8048,-252.4133 93.3699,-259.9612 99.6996,-262.9503"/>
</g>
<!-- 8&#45;&gt;3 -->
<g id="edge9" class="edge">
<title>8&#45;&gt;3</title>
<path fill="none" stroke="#c0c0c0" stroke-width="2" d="M115.0515,-215.8314C117.4303,-208.0463 120.2638,-198.7729 122.9033,-190.1347"/>
<polygon fill="#c0c0c0" stroke="#c0c0c0" stroke-width="2" points="126.2987,-190.9996 125.8737,-180.4133 119.6042,-188.954 126.2987,-190.9996"/>
</g>
<!-- 9 -->
<g id="node10" class="node">
<title>9</title>
<path fill="none" stroke="#d88d56" stroke-width="2" stroke-dasharray="5,2" d="M309,-324C309,-324 250,-324 250,-324 244,-324 238,-318 238,-312 238,-312 238,-300 238,-300 238,-294 244,-288 250,-288 250,-288 309,-288 309,-288 315,-288 321,-294 321,-300 321,-300 321,-312 321,-312 321,-318 315,-324 309,-324"/>
<text text-anchor="middle" x="279.5" y="-309" font-family="sans" font-size="10.00" fill="#000000">trim_galore_se</text>
<text text-anchor="middle" x="279.5" y="-298" font-family="sans" font-size="10.00" fill="#000000">sample: B</text>
</g>
<!-- 9&#45;&gt;4 -->
<g id="edge10" class="edge">
<title>9&#45;&gt;4</title>
<path fill="none" stroke="#c0c0c0" stroke-width="2" d="M276.5761,-287.9555C270.4769,-250.3144 256.359,-163.1867 249.0572,-118.1246"/>
<polygon fill="#c0c0c0" stroke="#c0c0c0" stroke-width="2" points="252.4947,-117.4565 247.4402,-108.1451 245.5848,-118.5762 252.4947,-117.4565"/>
</g>
<!-- 10 -->
<g id="node11" class="node">
<title>10</title>
<path fill="none" stroke="#56d873" stroke-width="2" stroke-dasharray="5,2" d="M332.5,-252C332.5,-252 296.5,-252 296.5,-252 290.5,-252 284.5,-246 284.5,-240 284.5,-240 284.5,-228 284.5,-228 284.5,-222 290.5,-216 296.5,-216 296.5,-216 332.5,-216 332.5,-216 338.5,-216 344.5,-222 344.5,-228 344.5,-228 344.5,-240 344.5,-240 344.5,-246 338.5,-252 332.5,-252"/>
<text text-anchor="middle" x="314.5" y="-231.5" font-family="sans" font-size="10.00" fill="#000000">bwa_map</text>
</g>
<!-- 9&#45;&gt;10 -->
<g id="edge14" class="edge">
<title>9&#45;&gt;10</title>
<path fill="none" stroke="#c0c0c0" stroke-width="2" d="M288.332,-287.8314C292.1986,-279.8771 296.8206,-270.369 301.0968,-261.5723"/>
<polygon fill="#c0c0c0" stroke="#c0c0c0" stroke-width="2" points="304.3249,-262.9371 305.5491,-252.4133 298.0293,-259.8768 304.3249,-262.9371"/>
</g>
<!-- 10&#45;&gt;5 -->
<g id="edge11" class="edge">
<title>10&#45;&gt;5</title>
<path fill="none" stroke="#c0c0c0" stroke-width="2" d="M317.5281,-215.8314C318.8115,-208.131 320.3376,-198.9743 321.7639,-190.4166"/>
<polygon fill="#c0c0c0" stroke="#c0c0c0" stroke-width="2" points="325.2394,-190.8526 323.4311,-180.4133 318.3347,-189.7018 325.2394,-190.8526"/>
</g>
</g>
</svg>
